<?xml version="1.0" standalone="no"?><!DOCTYPE svg PUBLIC "-//W3C//DTD SVG 1.1//EN" "http://www.w3.org/Graphics/SVG/1.1/DTD/svg11.dtd"><svg t="1487310753404" class="icon" style="" viewBox="0 0 1024 1024" version="1.1" xmlns="http://www.w3.org/2000/svg" p-id="3856" xmlns:xlink="http://www.w3.org/1999/xlink" width="64" height="64"><defs><style type="text/css"></style></defs><path d="M779.251763 885.750309c19.232017 0 34.806737 16.3422 34.806737 36.524868 0 20.149922-15.573697 36.492122-34.806737 36.492122L163.834392 958.7673c-19.204387 0-34.778084-16.341177-34.778084-36.492122 0-20.181645 15.57472-36.524868 34.778084-36.524868L779.251763 885.750309zM162.211429 836.475046l83.597977-234.30949 136.251174 143.000901L162.211429 836.475046zM409.996838 718.236108 272.593422 574.062498l373.534392-388.885008L783.527137 329.35417 409.996838 718.236108zM809.163003 299.393811 671.76061 155.219177l68.729338-72.088852c22.773679-23.864524 59.646472-23.864524 82.419128 0l54.953589 57.663304c22.773679 23.896246 22.773679 62.647829 0 86.543052L809.163003 299.393811z" p-id="3857" fill="#519c15"></path></svg>