<?xml version="1.0" standalone="no"?><!DOCTYPE svg PUBLIC "-//W3C//DTD SVG 1.1//EN" "http://www.w3.org/Graphics/SVG/1.1/DTD/svg11.dtd"><svg t="1487310729799" class="icon" style="" viewBox="0 0 1024 1024" version="1.1" xmlns="http://www.w3.org/2000/svg" p-id="3142" xmlns:xlink="http://www.w3.org/1999/xlink" width="64" height="64"><defs><style type="text/css"></style></defs><path d="M512.001023 71.221088c-243.435335 0-440.778912 197.3446-440.778912 440.778912 0 243.434312 197.343577 440.777889 440.778912 440.777889 243.433288 0 440.776865-197.343577 440.776865-440.777889C952.777889 268.565688 755.434312 71.221088 512.001023 71.221088zM699.16782 567.362912c20.665669 0 37.400818 16.691147 37.400818 37.393655 0 20.701484-16.73515 37.512359-37.400818 37.512359L549.468356 642.268926l0 87.293135c0 20.702508-16.808828 37.437657-37.46938 37.437657-20.701484 0-37.435611-16.73515-37.435611-37.437657l0-87.293135L324.861856 642.268926c-20.664645 0-37.430494-16.809851-37.430494-37.512359 0-20.702508 16.765849-37.393655 37.430494-37.393655l149.70151 0 0-74.870198L324.899718 492.492714c-20.664645 0-37.432541-16.73515-37.432541-37.399795 0-20.664645 16.766872-37.432541 37.432541-37.432541l90.478687 0-96.691179-96.770997c-14.602579-14.634302-14.640442-38.293141 0-52.965306 14.598486-14.56574 38.331004-14.56574 52.930513 0l137.232524 137.38295L646.089951 267.925099c14.672164-14.56574 38.293141-14.56574 52.891627 0 14.635325 14.710027 14.635325 38.331004 0 52.965306l-96.653317 96.770997 96.839559 0c20.665669 0 37.400818 16.767895 37.400818 37.432541 0 20.664645-16.73515 37.399795-37.400818 37.399795L549.468356 492.493737l0 74.870198L699.16782 567.363935z" p-id="3143" fill="#519c15"></path></svg>