<?xml version="1.0" standalone="no"?><!DOCTYPE svg PUBLIC "-//W3C//DTD SVG 1.1//EN" "http://www.w3.org/Graphics/SVG/1.1/DTD/svg11.dtd"><svg t="1487298851957" class="icon" style="" viewBox="0 0 1024 1024" version="1.1" xmlns="http://www.w3.org/2000/svg" p-id="2481" xmlns:xlink="http://www.w3.org/1999/xlink" width="200" height="200"><defs><style type="text/css"></style></defs><path d="M936.091328 485.150948c-117.210229-117.210229-307.2486-117.210229-424.458829 0s-117.210229 307.2486 0 424.458829 307.2486 117.210229 424.458829 0 117.214229-307.2486 0-424.458829zM636.472743 784.767533v-174.778342h174.778341v174.776342l-174.778341 0.002z" fill="#FFCF65" p-id="2482"></path><path d="M886.157231 535.085045c-89.632175-89.630175-234.954459-89.630175-324.586634 0s-89.630175 234.954459 0 324.586634 234.954459 89.632175 324.586634 0 89.630175-234.952459 0-324.586634zM636.472743 784.767533v-174.778342h174.778341v174.776342l-174.778341 0.002z" fill="#C8A564" p-id="2483"></path><path d="M623.098717 798.143559a17.600034 17.600034 0 0 1-5.16801-12.484025V609.10119a17.648034 17.648034 0 0 1 17.652034-17.652035h176.558345a17.648034 17.648034 0 0 1 17.652035 17.652035v176.558344a17.648034 17.648034 0 0 1-17.652035 17.652035H635.582741a17.600034 17.600034 0 0 1-12.484024-5.16801z m30.138059-171.390335v141.250276h141.250276v-141.250276h-141.250276z" fill="#FFCF65" p-id="2484"></path><path d="M549.084572 872.155703c-96.372188-96.372188-96.372188-253.182494 0-349.554682s253.182494-96.372188 349.554683 0 96.372188 253.182494 0 349.554682-253.180494 96.376188-349.554683 0z m324.588634-324.584634c-82.610161-82.608161-217.014424-82.604161-299.618585 0s-82.610161 217.008424 0 299.618586 217.014424 82.604161 299.618585 0 82.608161-217.008424 0-299.618586z" fill="#BE9155" p-id="2485"></path><path d="M512.368501 485.150948c-117.210229-117.210229-307.2486-117.210229-424.458829 0s-117.210229 307.2486 0 424.458829 307.2486 117.210229 424.458829 0 117.210229-307.2486 0-424.458829zM212.749916 784.767533v-174.778342h174.776341v174.776342l-174.776341 0.002z" fill="#FFCF65" p-id="2486"></path><path d="M462.430403 535.085045c-89.630175-89.630175-234.954459-89.630175-324.586634 0s-89.630175 234.954459 0 324.586634 234.954459 89.632175 324.586634 0 89.634175-234.952459 0-324.586634z m-249.680487 249.682488v-174.778342h174.776341v174.776342l-174.776341 0.002z" fill="#C8A564" p-id="2487"></path><path d="M199.375889 798.143559a17.600034 17.600034 0 0 1-5.16801-12.484025V609.10119a17.648034 17.648034 0 0 1 17.652035-17.652035h176.558345a17.648034 17.648034 0 0 1 17.652034 17.652035v176.558344a17.648034 17.648034 0 0 1-17.652034 17.652035h-176.558345a17.592034 17.592034 0 0 1-12.484025-5.16801z m30.136059-171.390335v141.250276h141.250276v-141.250276h-141.250276z" fill="#FFCF65" p-id="2488"></path><path d="M125.359745 872.155703c-96.372188-96.372188-96.372188-253.182494 0-349.554682s253.182494-96.372188 349.554683 0 96.372188 253.182494 0 349.554682-253.178494 96.376188-349.554683 0z m324.588634-324.584634c-82.610161-82.608161-217.014424-82.604161-299.618585 0s-82.608161 217.008424 0 299.618586 217.014424 82.604161 299.618585 0 82.608161-217.008424 0-299.618586z" fill="#BE9155" p-id="2489"></path><path d="M512.0005 26.482052c-165.762324 0-300.138586 134.376262-300.138586 300.138586s134.376262 300.138586 300.138586 300.138586 300.138586-134.376262 300.138586-300.138586S677.762824 26.482052 512.0005 26.482052z m0 423.724827l-123.586241-123.586241 123.586241-123.586241 123.586241 123.586241-123.586241 123.586241z" fill="#FFCF65" p-id="2490"></path><path d="M512.0005 97.10219c-126.760248 0-229.516448 102.760201-229.516448 229.516448s102.760201 229.516448 229.516448 229.516448 229.516448-102.760201 229.516448-229.516448S638.758748 97.10219 512.0005 97.10219z m0 353.104689l-123.586241-123.586241 123.586241-123.586241 123.586241 123.586241-123.586241 123.586241z" fill="#C8A564" p-id="2491"></path><path d="M512.0005 469.120916a17.592034 17.592034 0 0 1-12.482024-5.17201l-124.844244-124.844244a17.650034 17.650034 0 0 1 0-24.966048l124.844244-124.844244a17.650034 17.650034 0 0 1 24.966048 0l124.844244 124.844244a17.650034 17.650034 0 0 1 0 24.966048l-124.844244 124.844244a17.614034 17.614034 0 0 1-12.484024 5.17201z m-99.880195-142.500278l99.880195 99.880195 99.880195-99.880195-99.880195-99.880195-99.880195 99.880195z" fill="#FFCF65" p-id="2492"></path><path d="M512.0005 573.793121c-136.294266 0-247.172483-110.878217-247.172483-247.172483S375.706234 79.448155 512.0005 79.448155 759.172983 190.326372 759.172983 326.620638s-110.880217 247.172483-247.172483 247.172483z m0-459.034897c-116.828228 0-211.862414 95.042186-211.862414 211.862414s95.036186 211.862414 211.862414 211.862414 211.860414-95.042186 211.860414-211.862414-95.032186-211.862414-211.860414-211.862414z" fill="#BE9155" p-id="2493"></path><path d="M653.240776 679.723328H370.758224a17.658034 17.658034 0 0 1-17.656034-17.656035v-35.310069a17.658034 17.658034 0 0 1 17.656034-17.656034h282.482552a17.658034 17.658034 0 0 1 17.656034 17.656034v35.310069a17.654034 17.654034 0 0 1-17.656034 17.656035z" fill="#FF4B4B" p-id="2494"></path><path d="M493.348464 406.072793l149.332291 258.648505a17.656034 17.656034 0 0 0 24.116047 6.462013l30.57806-17.656035a17.656034 17.656034 0 0 0 6.462013-24.116047l-149.332292-258.648505a17.656034 17.656034 0 0 0-24.116047-6.462012l-30.57806 17.656034a17.654034 17.654034 0 0 0-6.462012 24.116047z" fill="#FF4B4B" p-id="2495"></path><path d="M527.28653 406.072793L377.954238 664.721298a17.656034 17.656034 0 0 1-24.116047 6.462013l-30.57806-17.656035a17.656034 17.656034 0 0 1-6.462012-24.116047l149.332291-258.648505a17.656034 17.656034 0 0 1 24.116048-6.462012l30.578059 17.656034a17.652034 17.652034 0 0 1 6.462013 24.116047z" fill="#FF4B4B" p-id="2496"></path><path d="M410.066301 679.723328l40.77408-70.620138h-40.77208l-32.110063 55.618108a17.650034 17.650034 0 0 1-15.30803 8.830018c-1.958004 0-3.904008-0.456001-5.812011-1.130003 3.218006 4.322008 8.120016 7.302014 13.922027 7.302015h39.306077zM493.348464 406.072793a17.652034 17.652034 0 0 1 6.462012-24.116047l10.508021-6.066012-20.074039-11.588022a17.652034 17.652034 0 0 0-24.116048 6.462012l-9.138017 15.826031c-2.538005 12.276024-0.966002 25.45405 5.780011 37.140073l27.162053 47.046091 20.38604-35.310068-16.970033-29.394058zM674.270817 578.197129a52.570103 52.570103 0 0 0-21.030041-4.404008h-63.060123l20.38604 35.310069h42.674083a17.658034 17.658034 0 0 1 17.656034 17.656034v35.310069c0 2.918006-0.878002 5.554011-2.132004 7.978016l28.612056-16.518033a17.652034 17.652034 0 0 0 6.462013-24.116047l-29.568058-51.2161z" fill="#C83741" p-id="2497"></path></svg>