<?xml version="1.0" standalone="no"?><!DOCTYPE svg PUBLIC "-//W3C//DTD SVG 1.1//EN" "http://www.w3.org/Graphics/SVG/1.1/DTD/svg11.dtd"><svg t="1487311263848" class="icon" style="" viewBox="0 0 1024 1024" version="1.1" xmlns="http://www.w3.org/2000/svg" p-id="7269" xmlns:xlink="http://www.w3.org/1999/xlink" width="64" height="64"><defs><style type="text/css"></style></defs><path d="M561.976 429.679c0.282 48.847 8.498 90.636 24.876 125.93 27.388-35.888 50.824-81.6 70.306-138.070h-87.558l-7.624 12.142zM60.236 511.843c0 249.6 202.164 451.764 451.764 451.764s451.764-202.164 451.764-451.764-202.164-451.764-451.764-451.764-451.764 202.164-451.764 451.764zM439.436 293.303h57.318l-29.364 166.306c40.658-46.87 75.388-103.342 104.47-169.412l58.73 10.447c-9.036 20.048-18.070 39.53-27.642 58.447h151.313l-10.448 58.448h-29.647c-22.616 75.67-54.212 138.636-95.153 188.612 22.024 25.158 50.824 45.176 85.553 59.576-16.094 16.942-32.752 37.242-49.412 59.858-33.6-19.482-61.553-43.2-83.604-71.182-33.854 29.364-72.536 54.24-116.302 74.258-5.93-21.742-13.836-41.196-23.436-59.012 40.942-18.636 77.082-40.63 108.424-65.788-14.964-31.058-24.564-66.352-28.8-105.036l-17.506 20.584c-7.342-17.506-16.658-35.294-27.67-53.054l-45.742 260.018h-57.318l22.306-127.342c-40.658 18.636-71.436 35.294-92.047 49.694l-15.248-56.47c12.424-8.47 19.482-19.454 22.024-33.036l39.248-222.776h54.776l-39.248 222.776 41.224-20.556 43.2-245.364z" p-id="7270" fill="#519c15"></path></svg>