<?xml version="1.0" standalone="no"?><!DOCTYPE svg PUBLIC "-//W3C//DTD SVG 1.1//EN" "http://www.w3.org/Graphics/SVG/1.1/DTD/svg11.dtd"><svg t="1487298862073" class="icon" style="" viewBox="0 0 1024 1024" version="1.1" xmlns="http://www.w3.org/2000/svg" p-id="2621" xmlns:xlink="http://www.w3.org/1999/xlink" width="200" height="200"><defs><style type="text/css"></style></defs><path d="M512 512m-512 0a512 512 0 1 0 1024 0 512 512 0 1 0-1024 0Z" fill="#FF4B4B" p-id="2622"></path><path d="M750.998 246.518h-51.406a36.672 36.672 0 0 0-27.904 12.878L512 446.684l-159.688-187.288a36.672 36.672 0 0 0-27.904-12.878h-51.406c-10.458 0-16.132 12.236-9.378 20.22l191.486 226.3H379.26a18.962 18.962 0 0 0-18.962 18.962v37.926c0 10.472 8.49 18.964 18.962 18.964h94.814v75.852H379.26c-10.472 0-18.962 8.49-18.962 18.964v37.926a18.962 18.962 0 0 0 18.962 18.962h94.814v113.778a18.962 18.962 0 0 0 18.962 18.962h37.926a18.962 18.962 0 0 0 18.962-18.962v-113.778h94.814c10.472 0 18.964-8.49 18.964-18.962v-37.926a18.964 18.964 0 0 0-18.964-18.964h-94.814v-75.852h94.814a18.964 18.964 0 0 0 18.964-18.964V512c0-10.472-8.49-18.962-18.964-18.962h-75.852l191.486-226.3c6.758-7.984 1.084-20.22-9.374-20.22z" fill="#FFCF65" p-id="2623"></path></svg>